<?xml version="1.0" encoding="UTF-8" standalone="no"?>
<!-- Created with Inkscape (http://www.inkscape.org/) -->

<svg
   xmlns:dc="http://purl.org/dc/elements/1.1/"
   xmlns:cc="http://creativecommons.org/ns#"
   xmlns:rdf="http://www.w3.org/1999/02/22-rdf-syntax-ns#"
   xmlns:svg="http://www.w3.org/2000/svg"
   xmlns="http://www.w3.org/2000/svg"
   xmlns:sodipodi="http://sodipodi.sourceforge.net/DTD/sodipodi-0.dtd"
   xmlns:inkscape="http://www.inkscape.org/namespaces/inkscape"
   width="371.24268"
   height="403.02573"
   id="svg2"
   version="1.1"
   inkscape:version="0.48.3.1 r9886"
   sodipodi:docname="pith.svg"
   inkscape:export-filename="/home/christoph/pith.png"
   inkscape:export-xdpi="33.496624"
   inkscape:export-ydpi="33.496624">
  <defs
     id="defs4" />
  <sodipodi:namedview
     id="base"
     pagecolor="#ffffff"
     bordercolor="#666666"
     borderopacity="1.0"
     inkscape:pageopacity="0.0"
     inkscape:pageshadow="2"
     inkscape:zoom="0.35"
     inkscape:cx="318.33036"
     inkscape:cy="-229.45632"
     inkscape:document-units="px"
     inkscape:current-layer="layer1"
     showgrid="false"
     inkscape:window-width="1097"
     inkscape:window-height="856"
     inkscape:window-x="270"
     inkscape:window-y="157"
     inkscape:window-maximized="0"
     fit-margin-top="0"
     fit-margin-left="0"
     fit-margin-right="0"
     fit-margin-bottom="0" />
  <metadata
     id="metadata7">
    <rdf:RDF>
      <cc:Work
         rdf:about="">
        <dc:format>image/svg+xml</dc:format>
        <dc:type
           rdf:resource="http://purl.org/dc/dcmitype/StillImage" />
        <dc:title></dc:title>
      </cc:Work>
    </rdf:RDF>
  </metadata>
  <g
     inkscape:label="Layer 1"
     inkscape:groupmode="layer"
     id="layer1"
     transform="translate(-15.045062,-14.165864)">
    <path
       sodipodi:type="star"
       style="fill:#000000"
       id="path2997"
       sodipodi:sides="3"
       sodipodi:cx="311.42856"
       sodipodi:cy="486.64789"
       sodipodi:r1="1.9008054"
       sodipodi:r2="190.08054"
       sodipodi:arg1="0.8279257"
       sodipodi:arg2="1.8751233"
       inkscape:flatsided="false"
       inkscape:rounded="0.28"
       inkscape:randomized="0"
       d="M 312.71427,488.04789 C 273.70879,523.86924 304.99565,683.86306 254.47071,667.994 203.94577,652.12495 321.09273,538.75176 309.57327,487.06135 298.0538,435.37094 143.85166,382.46924 182.85714,346.64789 c 39.00548,-35.82136 78.61606,122.31748 129.141,138.18654 50.52494,15.86906 173.44022,-91.22307 184.95969,-39.53265 11.51946,51.69041 -145.23808,6.92475 -184.24356,42.74611 z"
       transform="matrix(-0.36211784,-1.1471731,1.1471731,-0.36211784,-287.86867,749.01759)"
       inkscape:transform-center-x="-53.928111" />
    <path
       sodipodi:type="arc"
       style="fill:#000000"
       id="path2995"
       sodipodi:cx="314.28571"
       sodipodi:cy="492.36218"
       sodipodi:rx="225.71428"
       sodipodi:ry="225.71428"
       d="m 539.99998,492.36218 c 0,124.65856 -101.05572,225.71428 -225.71427,225.71428 -124.65856,0 -225.714284,-101.05572 -225.714284,-225.71428 0,-124.65855 101.055724,-225.71428 225.714284,-225.71428 124.65855,0 225.71427,101.05573 225.71427,225.71428 z"
       transform="matrix(0.70011743,0,0,0.70011743,-46.965337,-141.28114)" />
    <path
       sodipodi:type="arc"
       style="fill:#ffffff"
       id="path2993"
       sodipodi:cx="145.71428"
       sodipodi:cy="338.07648"
       sodipodi:rx="197.14285"
       sodipodi:ry="194.28572"
       d="m 342.85713,338.07648 c 0,107.30104 -88.26386,194.28572 -197.14285,194.28572 -108.878992,0 -197.142854,-86.98468 -197.142854,-194.28572 0,-107.30104 88.263862,-194.28572 197.142854,-194.28572 108.87899,0 197.14285,86.98468 197.14285,194.28572 z"
       transform="matrix(0.72487031,0,0,0.73553012,67.447611,-45.235234)" />
    <path
       sodipodi:type="arc"
       style="fill:#241c1c;fill-rule:evenodd;stroke:#000000;stroke-width:1px;stroke-linecap:butt;stroke-linejoin:miter;stroke-opacity:1"
       id="path2985"
       sodipodi:cx="331.42856"
       sodipodi:cy="503.79074"
       sodipodi:rx="125.71429"
       sodipodi:ry="125.71429"
       d="m 457.14285,503.79074 c 0,69.43008 -56.28421,125.71429 -125.71429,125.71429 -69.43009,0 -125.71429,-56.28421 -125.71429,-125.71429 0,-69.43008 56.2842,-125.71429 125.71429,-125.71429 69.43008,0 125.71429,56.28421 125.71429,125.71429 z"
       transform="matrix(0.95246182,0,0,0.95246182,-142.60148,-276.41125)" />
    <path
       sodipodi:type="star"
       style="fill:#ffffff"
       id="path2989"
       sodipodi:sides="3"
       sodipodi:cx="268.57144"
       sodipodi:cy="109.50504"
       sodipodi:r1="83.190781"
       sodipodi:r2="84.03109"
       sodipodi:arg1="0.95449939"
       sodipodi:arg2="2.0016969"
       inkscape:flatsided="true"
       inkscape:rounded="0.86"
       inkscape:randomized="0"
       d="M 316.65716,177.39076 C 215.53706,249.01749 197.20836,240.59157 185.73783,117.20564 174.26731,-6.1803014 190.72872,-17.840467 303.31934,33.918737 415.90996,85.67794 417.77725,105.76402 316.65716,177.39076 z"
       inkscape:transform-center-x="-0.061786509"
       inkscape:transform-center-y="-3.2202898"
       transform="matrix(0.56629988,0.04570557,-0.04242499,0.52565355,22.633571,129.44604)" />
  </g>
</svg>
